<?xml version="1.0" encoding="UTF-8"?>
<svg version="1.1" xmlns="http://www.w3.org/2000/svg" width="723" height="289">
<path d="M0 0 C238.59 0 477.18 0 723 0 C723 95.37 723 190.74 723 289 C484.41 289 245.82 289 0 289 C0 193.63 0 98.26 0 0 Z " fill="#FFFFFF" transform="translate(0,0)"/>
<path d="M0 0 C0.89129105 -0.0143811 1.78258209 -0.02876221 2.70088196 -0.0435791 C3.66615311 -0.05412323 4.63142426 -0.06466736 5.62594604 -0.07553101 C7.16598549 -0.097435 7.16598549 -0.097435 8.73713684 -0.11978149 C18.19244448 -0.24564 27.6485701 -0.3145168 37.10453987 -0.36762428 C43.45035304 -0.40338644 49.79489866 -0.45672179 56.1401062 -0.55307007 C62.28628395 -0.64610024 68.43134028 -0.6945782 74.57818222 -0.71201706 C76.91375088 -0.72607173 79.24928211 -0.75562087 81.58444595 -0.80131912 C102.1260542 -1.18368711 102.1260542 -1.18368711 109.02462769 4.34292603 C110.53634205 5.90904433 112.00548173 7.51840571 113.41061401 9.18081665 C114.57054309 10.29004926 115.73896111 11.39053774 116.91915894 12.47817993 C117.91492873 13.48076193 118.90561627 14.48841798 119.89108276 15.50112915 C120.7049218 16.32277054 120.7049218 16.32277054 121.53520203 17.16101074 C123.2278503 18.87108825 124.91349532 20.58783193 126.59811401 22.30581665 C128.83812121 24.58271355 131.08162695 26.85608946 133.32858276 29.12612915 C133.86079437 29.66465515 134.39300598 30.20318115 134.94134521 30.75802612 C138.42297296 34.2568792 142.00353598 37.5733607 145.81808472 40.71157837 C148.39475925 43.08877097 150.23329086 45.01138232 150.77137756 48.56002808 C150.76471573 49.43939026 150.75805389 50.31875244 150.75119019 51.22476196 C150.75096359 52.22549744 150.750737 53.22623291 150.75050354 54.2572937 C150.73501968 55.33033752 150.71953583 56.40338135 150.70358276 57.50894165 C150.69933792 58.61308411 150.69509308 59.71722656 150.6907196 60.85482788 C150.67393069 64.38040581 150.6362771 67.90541156 150.59811401 71.43081665 C150.5830675 73.82143339 150.56937904 76.2120591 150.55709839 78.60269165 C150.52402645 84.46226178 150.47382447 90.32149834 150.41061401 96.18081665 C148.80691962 96.241745 147.20255816 96.28529001 145.59811401 96.32144165 C144.7047937 96.34754517 143.81147339 96.37364868 142.89108276 96.40054321 C140.41061401 96.18081665 140.41061401 96.18081665 137.41061401 93.93081665 C134.45298406 89.86407547 133.1534672 87.2668552 133.21530151 82.19644165 C133.22496948 80.79458618 133.22496948 80.79458618 133.23483276 79.3644104 C133.25996948 77.91228149 133.25996948 77.91228149 133.28561401 76.43081665 C133.29463745 75.44726196 133.30366089 74.46370728 133.31295776 73.4503479 C133.33648616 71.02692258 133.36936033 68.60399443 133.41061401 66.18081665 C132.41207397 66.1965271 131.41353394 66.21223755 130.38473511 66.22842407 C126.66118515 66.28294285 122.93767011 66.31724599 119.21383667 66.34561157 C117.60570329 66.36064841 115.99761058 66.38108337 114.38961792 66.40713501 C112.07099338 66.44374487 109.75291352 66.46059387 107.43405151 66.4737854 C106.72131073 66.48926926 106.00856995 66.50475311 105.27423096 66.52070618 C99.74729845 66.52254721 96.03041579 65.46595581 91.83809471 61.80917645 C87.85370376 57.67025062 86.72774963 54.70530086 86.73083496 48.98417664 C86.77728653 47.66032204 86.77728653 47.66032204 86.82467651 46.3097229 C86.8331662 45.38739365 86.84165588 44.46506439 86.85040283 43.51478577 C86.88379722 40.5897379 86.95904778 37.66752084 87.03561401 34.74331665 C87.06573177 32.75182021 87.0931044 30.76028024 87.11764526 28.76870728 C87.18354253 23.90499836 87.28696518 19.0433862 87.41061401 14.18081665 C75.81404522 14.21891203 64.2177983 14.2783301 52.62148285 14.36471939 C47.23640247 14.40417209 41.85148508 14.43637151 36.46627808 14.45181274 C31.26597359 14.46699369 26.06611725 14.50146522 20.86601257 14.54912567 C18.88541059 14.56392456 16.90474462 14.57185681 14.92408752 14.5727005 C12.14242173 14.57507638 9.36198818 14.60220593 6.58053589 14.63491821 C5.76773163 14.62988785 4.95492737 14.62485748 4.11749268 14.61967468 C-1.5347714 14.72203292 -5.85502286 16.03704001 -10.58938599 19.18081665 C-14.84908575 23.65896256 -15.7129109 26.98101632 -15.72982788 33.04393005 C-15.73553802 34.26784958 -15.74124817 35.4917691 -15.74713135 36.7527771 C-15.74837669 38.11135854 -15.74950179 39.4699401 -15.7505188 40.82852173 C-15.75514754 42.25763578 -15.76017228 43.6867486 -15.76556396 45.11585999 C-15.77868479 49.00025837 -15.78513233 52.88463947 -15.78957462 56.76905656 C-15.79250594 59.19617015 -15.79661087 61.62327903 -15.8010788 64.05039024 C-15.81475307 71.64509745 -15.82441999 79.23979387 -15.82828069 86.83451253 C-15.83276102 95.59991891 -15.850308 104.36516932 -15.87928128 113.13052827 C-15.900902 119.90685051 -15.91098518 126.68312887 -15.91232181 133.45948523 C-15.91336958 137.50622693 -15.91927148 141.55282199 -15.93714142 145.59952736 C-15.95362884 149.40724281 -15.95577446 153.21470151 -15.94700241 157.02243996 C-15.94623238 158.41801644 -15.9505703 159.81360676 -15.96046066 161.20914841 C-15.97319485 163.11830762 -15.96550631 165.02757014 -15.95687866 166.93675232 C-15.95834522 168.00397931 -15.95981178 169.0712063 -15.96132278 170.17077351 C-15.52774499 173.6796704 -14.25870303 176.09005154 -12.58938599 179.18081665 C-12.58938599 179.84081665 -12.58938599 180.50081665 -12.58938599 181.18081665 C-7.30185299 183.92250043 -3.30273968 185.43434585 2.73873901 185.30923462 C4.62725586 185.2809407 4.62725586 185.2809407 6.55392456 185.2520752 C7.22241425 185.23841793 7.89090393 185.22476067 8.57965088 185.21068954 C12.15974647 185.14585547 15.74018288 185.14160009 19.32077026 185.12612915 C23.85943391 185.10265895 28.39596086 185.06215556 32.93356323 184.9581604 C60.90751586 184.34769739 60.90751586 184.34769739 68.21261597 190.50335693 C70.55268965 192.91464759 72.4830863 195.42827903 74.41061401 198.18081665 C75.07061401 198.51081665 75.73061401 198.84081665 76.41061401 199.18081665 C76.41061401 199.84081665 76.41061401 200.50081665 76.41061401 201.18081665 C65.87462104 201.25049587 55.33868339 201.30371873 44.80250645 201.33625317 C39.9095041 201.3518724 35.01666005 201.37304199 30.12374878 201.40713501 C25.3969614 201.43986233 20.67032575 201.45769779 15.94343376 201.46544838 C14.14501496 201.47096796 12.34660395 201.48174612 10.5482502 201.49800682 C-11.25708701 201.68723105 -11.25708701 201.68723105 -20.58938599 194.18081665 C-28.78093634 186.11257996 -30.91971098 179.87760417 -31.01818848 168.45753479 C-31.01554563 167.01592956 -31.01257449 165.5743249 -31.00930786 164.13272095 C-31.01665441 162.60112898 -31.02524235 161.06954254 -31.03497314 159.53796387 C-31.05713838 155.39109569 -31.06012227 151.24442652 -31.05822563 147.09750724 C-31.05810568 143.62856254 -31.06668009 140.15965961 -31.07500315 136.69072658 C-31.09421996 128.50192925 -31.09712762 120.31323386 -31.09036255 112.12442017 C-31.08372567 103.69405694 -31.1065757 95.26413167 -31.14367628 86.83385724 C-31.17443002 79.58094036 -31.18572709 72.32816394 -31.18183947 65.07518321 C-31.1797775 60.74996128 -31.185165 56.42508011 -31.20973206 52.09992027 C-31.23209032 48.02933405 -31.23004685 43.95945668 -31.20980453 39.88886642 C-31.20641023 38.40143972 -31.21141505 36.91396445 -31.22578812 35.42660332 C-31.31768538 25.20539614 -29.82899041 17.8590094 -23.63235474 9.5597229 C-16.831757 2.90229564 -9.56911941 0.13378566 0 0 Z " fill="#3F389A" transform="translate(53.589385986328125,36.819183349609375)"/>
<path d="M0 0 C1.30662598 0.00749268 1.30662598 0.00749268 2.63964844 0.01513672 C13.48510953 0.30581913 23.35052716 3.81695107 31.25 11.5 C38.88501487 20.04145499 41.63340486 28.84766502 41.53515625 40.23046875 C40.58014077 51.18044073 35.77290004 59.88605919 27.46484375 66.89453125 C23.97952927 69.42092322 20.28093409 71.03861324 16.25 72.5 C15.37859375 72.85578125 14.5071875 73.2115625 13.609375 73.578125 C3.04465933 76.47727953 -10.52985545 76.00884297 -20.30859375 71.04296875 C-29.70683927 65.10327758 -36.46359868 57.06131232 -39.27734375 46.16015625 C-41.12297627 35.7727534 -39.64635568 26.13517333 -34.27734375 16.9921875 C-25.91002037 5.32145277 -14.11493507 -0.10722292 0 0 Z " fill="#383B95" transform="translate(486.75,125.5)"/>
<path d="M0 0 C7.59 0 15.18 0 23 0 C23.928125 2.26875 24.85625 4.5375 25.8125 6.875 C28.13240422 12.5415189 30.50035835 18.18522873 32.9140625 23.8125 C33.41317139 24.9792627 33.91228027 26.14602539 34.42651367 27.34814453 C35.42740953 29.6843768 36.43272654 32.01872028 37.44262695 34.35107422 C37.9037085 35.4288916 38.36479004 36.50670898 38.83984375 37.6171875 C39.25613037 38.58253418 39.67241699 39.54788086 40.10131836 40.54248047 C41 43 41 43 41 46 C41.66 46 42.32 46 43 46 C43.12004395 45.1426123 43.24008789 44.28522461 43.36376953 43.40185547 C44.00996018 39.94674401 44.98460269 36.87350935 46.1796875 33.5703125 C46.61410156 32.36246094 47.04851563 31.15460938 47.49609375 29.91015625 C47.95565299 28.64840975 48.41528892 27.38669118 48.875 26.125 C49.54595703 24.26294922 49.54595703 24.26294922 50.23046875 22.36328125 C51.47870668 18.90577264 52.7366996 15.45202944 54 12 C54.45487793 10.75041504 54.45487793 10.75041504 54.91894531 9.47558594 C56.12705397 6.19469715 57.43212146 3.13575709 59 0 C65.93 0 72.86 0 80 0 C78.38310967 6.55266083 76.48201634 12.43239268 73.58984375 18.515625 C71.40241623 23.30969218 69.42400469 28.18236076 67.4375 33.0625 C67.06157715 33.98458252 66.6856543 34.90666504 66.29833984 35.85668945 C63.51275087 42.70596834 60.7395599 49.56090905 58.04174805 56.4453125 C57.05097897 58.97334518 56.02769092 61.48673608 55 64 C54.75910645 64.60150879 54.51821289 65.20301758 54.27001953 65.82275391 C47.70280716 82.1141056 38.48702191 93.76081508 25 105 C21.16009012 103.61624869 18.02947436 101.83690651 14.6875 99.5 C13.80449219 98.8915625 12.92148437 98.283125 12.01171875 97.65625 C11.34785156 97.1096875 10.68398438 96.563125 10 96 C10 95.34 10 94.68 10 94 C11.4781542 92.75977807 13.00975976 91.58296411 14.5625 90.4375 C21.06819066 85.36011253 27.23711933 78.94328194 30 71 C29.63434454 65.58649558 28.01135252 61.42841713 25.484375 56.7109375 C24.75286883 55.29742199 24.02311798 53.88299702 23.29492188 52.46777344 C22.9161792 51.73602905 22.53743652 51.00428467 22.1472168 50.25036621 C20.23858634 46.50642043 18.43833437 42.71222056 16.640625 38.9140625 C16.27956665 38.15196472 15.9185083 37.38986694 15.54650879 36.60467529 C14.8145063 35.0573235 14.0833467 33.50957269 13.35302734 31.96142578 C12.2401449 29.60412498 11.12214022 27.24929733 10.00390625 24.89453125 C0 3.76168129 0 3.76168129 0 0 Z " fill="#383B96" transform="translate(632,128)"/>
<path d="M0 0 C6.38412249 5.19879682 8.78018148 10.02505784 10 18 C10.24894502 21.94257905 10.23423882 25.86728344 10.1953125 29.81640625 C10.1924826 30.91347397 10.18965271 32.01054169 10.18673706 33.14085388 C10.17561997 36.61485098 10.15053112 40.08858197 10.125 43.5625 C10.11495925 45.9303348 10.10583532 48.29817367 10.09765625 50.66601562 C10.07570839 56.44411159 10.04123736 62.22201081 10 68 C3.4 68 -3.2 68 -10 68 C-10.05607422 63.34003906 -10.05607422 63.34003906 -10.11328125 58.5859375 C-10.15953094 55.56747514 -10.21075214 52.54913509 -10.26245117 49.53076172 C-10.29564549 47.43773876 -10.32369445 45.34462747 -10.34643555 43.25146484 C-10.38008231 40.23757388 -10.43240393 37.22448837 -10.48828125 34.2109375 C-10.49467117 33.27945892 -10.5010611 32.34798035 -10.50764465 31.38827515 C-10.6243911 26.19530051 -11.0869566 22.48046555 -14 18 C-18.03525442 14.34905552 -21.37380206 13.3103306 -26.6796875 13.53515625 C-30.68586974 14.33774158 -33.8981226 16.38872566 -37 19 C-37.33 19.66 -37.66 20.32 -38 21 C-38.66 21 -39.32 21 -40 21 C-40 36.51 -40 52.02 -40 68 C-46.6 68 -53.2 68 -60 68 C-60 44.9 -60 21.8 -60 -2 C-53.4 -2 -46.8 -2 -40 -2 C-39.67 0.64 -39.34 3.28 -39 6 C-38.52691406 5.52949219 -38.05382812 5.05898437 -37.56640625 4.57421875 C-26.97887223 -5.39416123 -12.93311073 -7.26754863 0 0 Z " fill="#353892" transform="translate(356,130)"/>
<path d="M0 0 C0.87591797 -0.00128906 1.75183594 -0.00257812 2.65429688 -0.00390625 C3.56115234 -0.00003906 4.46800781 0.00382812 5.40234375 0.0078125 C6.31306641 0.00394531 7.22378906 0.00007813 8.16210938 -0.00390625 C9.03673828 -0.00261719 9.91136719 -0.00132813 10.8125 0 C11.60922119 0.00112793 12.40594238 0.00225586 13.22680664 0.00341797 C15.33984375 0.1328125 15.33984375 0.1328125 18.33984375 1.1328125 C18.02901503 2.88311012 17.71611196 4.63303944 17.40234375 6.3828125 C17.22832031 7.35734375 17.05429687 8.331875 16.875 9.3359375 C16.43604646 11.63003045 15.93635783 13.87573221 15.33984375 16.1328125 C14.31503906 16.15859375 13.29023437 16.184375 12.234375 16.2109375 C10.87365676 16.26724308 9.51298132 16.32458987 8.15234375 16.3828125 C7.47880859 16.39699219 6.80527344 16.41117188 6.11132812 16.42578125 C1.28248186 16.66133473 -1.25343281 17.71967338 -4.66015625 21.1328125 C-6.07650458 23.96550916 -6.00645675 26.60747688 -6.22265625 29.7578125 C-6.36703125 31.8615625 -6.51140625 33.9653125 -6.66015625 36.1328125 C-0.72015625 36.1328125 5.21984375 36.1328125 11.33984375 36.1328125 C11.33984375 41.0828125 11.33984375 46.0328125 11.33984375 51.1328125 C5.39984375 51.1328125 -0.54015625 51.1328125 -6.66015625 51.1328125 C-6.66015625 69.2828125 -6.66015625 87.4328125 -6.66015625 106.1328125 C-13.59015625 106.1328125 -20.52015625 106.1328125 -27.66015625 106.1328125 C-27.66015625 87.9828125 -27.66015625 69.8328125 -27.66015625 51.1328125 C-31.95015625 51.1328125 -36.24015625 51.1328125 -40.66015625 51.1328125 C-40.66015625 46.1828125 -40.66015625 41.2328125 -40.66015625 36.1328125 C-36.37015625 36.1328125 -32.08015625 36.1328125 -27.66015625 36.1328125 C-27.69496094 35.1428125 -27.72976563 34.1528125 -27.765625 33.1328125 C-28.01510275 23.18394238 -27.5682305 15.43689382 -20.5390625 7.73828125 C-14.742141 2.78498658 -7.58184137 0.01071855 0 0 Z " fill="#383C96" transform="translate(613.66015625,91.8671875)"/>
<path d="M0 0 C3.39488422 2.05107588 4.80323081 3.70484621 7 7 C7.5873741 11.40530573 6.82058467 13.76959964 4.29724121 17.37878418 C1.88148143 20.39785877 -0.99187653 22.90352771 -3.859375 25.484375 C-10.68022859 31.75264304 -17.29186588 38.20147086 -23.828125 44.765625 C-24.75927124 45.70007446 -25.69041748 46.63452393 -26.64978027 47.59729004 C-29.51903711 50.47902868 -32.3847562 53.3642721 -35.25 56.25 C-38.16675982 59.18728083 -41.08422128 62.12384616 -44.0055542 65.05657959 C-45.80646393 66.86497635 -47.60511565 68.67562542 -49.40118408 70.48883057 C-50.21013123 71.30108093 -51.01907837 72.1133313 -51.85253906 72.95019531 C-52.55928772 73.66218079 -53.26603638 74.37416626 -53.99420166 75.10772705 C-57.3474704 78.27120546 -59.13908122 79.86789197 -63.79296875 80.58203125 C-69.08753792 80.36280204 -71.78053519 77.33333844 -75.3125 73.6875 C-75.9533252 73.05682617 -76.59415039 72.42615234 -77.25439453 71.77636719 C-78.55830676 70.48836821 -79.85365307 69.19163779 -81.14013672 67.88623047 C-82.867665 66.13421111 -84.61672637 64.40846929 -86.37890625 62.69140625 C-94.86199551 54.38004487 -94.86199551 54.38004487 -95.375 49.25 C-95.35058775 45.89941932 -94.75601354 44.15105468 -92.625 41.5625 C-89.58755215 38.59737234 -88.92549737 38.08899013 -84.75 37.6875 C-76.8228051 38.34809957 -72.44623681 44.39730343 -67.171875 49.85546875 C-65.1898111 52.03434936 -65.1898111 52.03434936 -63 53 C-62.67 52.01 -62.34 51.02 -62 50 C-60.4914093 48.51264954 -60.4914093 48.51264954 -58.5402832 46.91137695 C-53.54446768 42.66934308 -48.96481422 38.07252029 -44.35546875 33.41796875 C-43.46386551 32.52257889 -42.57226227 31.62718903 -41.65364075 30.70466614 C-38.82914385 27.86803451 -36.00783367 25.02826913 -33.1875 22.1875 C-29.45483946 18.42797669 -25.71859665 14.67205804 -21.98046875 10.91796875 C-21.12422409 10.05342575 -20.26797943 9.18888275 -19.38578796 8.29814148 C-18.59098526 7.50003555 -17.79618256 6.70192963 -16.97729492 5.87963867 C-16.2797258 5.17683273 -15.58215668 4.47402679 -14.8634491 3.74992371 C-10.18913993 -0.63961634 -6.15248476 -0.81574478 0 0 Z " fill="#52BB5E" transform="translate(204,146)"/>
<path d="M0 0 C7.26 0 14.52 0 22 0 C23.82337891 4.85525391 23.82337891 4.85525391 25.68359375 9.80859375 C26.85782714 12.92968959 28.03299331 16.05043268 29.20825195 19.17114258 C30.02693843 21.34655597 30.84464887 23.52233693 31.66137695 25.69848633 C32.8329062 28.81948572 34.00789559 31.93916282 35.18359375 35.05859375 C35.55028671 36.03775253 35.91697968 37.01691132 36.29478455 38.02574158 C36.6350618 38.92659988 36.97533905 39.82745819 37.32592773 40.75561523 C37.6257103 41.55281479 37.92549286 42.35001434 38.23435974 43.17137146 C38.85739724 44.98378096 38.85739724 44.98378096 40 46 C42.1992543 39.85960414 44.39721817 33.71887681 46.5625 27.56640625 C46.82272949 26.82704834 47.08295898 26.08769043 47.35107422 25.32592773 C47.85342815 23.89730923 48.3550963 22.46844933 48.85595703 21.03930664 C51.36108859 13.91517825 54.0228119 6.94677223 57 0 C63.93 0 70.86 0 78 0 C77.40832031 1.49789062 76.81664062 2.99578125 76.20703125 4.5390625 C70.49199109 19.01499277 70.49199109 19.01499277 65.265625 33.671875 C64.16639815 36.5624345 62.95527169 39.32311626 61.66015625 42.12890625 C58.93050032 48.0607942 56.53566969 54.09632439 54.1875 60.1875 C53.78080078 61.23486328 53.37410156 62.28222656 52.95507812 63.36132812 C51.96724053 65.90646263 50.98321164 68.45307487 50 71 C42.74 71 35.48 71 28 71 C27.34902344 69.10121094 26.69804687 67.20242187 26.02734375 65.24609375 C22.65425658 55.66775964 18.57818885 46.38429299 14.5625 37.0625 C0 3.16576856 0 3.16576856 0 0 Z " fill="#393C96" transform="translate(369,128)"/>
<path d="M0 0 C7.26 0 14.52 0 22 0 C22 34.65 22 69.3 22 105 C14.74 105 7.48 105 0 105 C0 70.35 0 35.7 0 0 Z " fill="#3B3E97" transform="translate(258,94)"/>
<path d="M0 0 C6.93 0 13.86 0 21 0 C21 23.43 21 46.86 21 71 C14.07 71 7.14 71 0 71 C0 47.57 0 24.14 0 0 Z " fill="#3B3F9A" transform="translate(540,128)"/>
<path d="M0 0 C0.09976706 4.39243685 0.17188558 8.78425272 0.21972656 13.17749023 C0.23969458 14.66816718 0.2668792 16.1587673 0.30175781 17.64916992 C0.53883344 28.04912006 0.18234017 37.50848868 -7.30371094 45.59594727 C-16.75014574 53.41495224 -26.16978896 53.78876484 -37.75 53.375 C-39.23692431 53.34482017 -40.72390859 53.31745869 -42.2109375 53.29296875 C-45.80856465 53.22770347 -49.40388173 53.12464327 -53 53 C-53 52.34 -53 51.68 -53 51 C-51.61460876 49.635849 -51.61460876 49.635849 -49.64819336 48.01928711 C-44.35910654 43.51818508 -39.51520004 38.6218692 -34.62890625 33.69140625 C-33.65654071 32.71462549 -32.68387384 31.73814463 -31.71092224 30.76194763 C-28.65858946 27.69830236 -25.61027392 24.63067963 -22.5625 21.5625 C-19.00394611 17.98032893 -15.44375597 14.39981474 -11.87937737 10.82343864 C-10.45639621 9.39396461 -9.03644894 7.96152263 -7.61659241 6.52894592 C-6.33406837 5.24146706 -6.33406837 5.24146706 -5.02563477 3.92797852 C-4.27032974 3.16743668 -3.51502472 2.40689484 -2.73683167 1.62330627 C-1 0 -1 0 0 0 Z " fill="#313187" transform="translate(204,185)"/>
<path d="M0 0 C5.61558765 2.6600152 9.02331063 6.46060763 11.25 12.25 C12.85068347 20.25341733 12.31466444 27.45946854 9 35 C6.625 37.9375 6.625 37.9375 4 40 C3.29875 40.598125 2.5975 41.19625 1.875 41.8125 C-3.21911419 43.91659064 -8.85224556 43.97031697 -14.12890625 42.34375 C-19.33418798 39.73548788 -21.77871157 35.6638653 -23.578125 30.265625 C-24.90023174 23.16542212 -25.63440482 13.6120697 -21.875 7.25 C-15.79079616 -0.3468512 -9.38808203 -1.18397468 0 0 Z " fill="#F4F5F9" transform="translate(494,142)"/>
<path d="M0 0 C0.86368698 -0.00525696 1.72737396 -0.01051392 2.61723328 -0.01593018 C5.47612519 -0.02914898 8.33446166 -0.02038547 11.19335938 -0.01025391 C13.17728787 -0.0122741 15.16121565 -0.01518508 17.1451416 -0.01895142 C21.30467798 -0.02337732 25.46402121 -0.01693511 29.62353516 -0.00292969 C34.96040471 0.01416229 40.29682168 0.00432254 45.63367462 -0.01364708 C49.73084943 -0.0244777 53.82791659 -0.02104189 57.9250946 -0.0132637 C59.8931229 -0.0112597 61.8611609 -0.01372797 63.82917786 -0.02070236 C66.57778888 -0.02830494 69.32566275 -0.01672949 72.07421875 0 C73.2992939 -0.00910904 73.2992939 -0.00910904 74.54911804 -0.0184021 C80.02242145 0.04344438 80.02242145 0.04344438 82.53869629 1.72885132 C84.14862264 4.40450009 83.97201968 6.34381147 83.53710938 9.38818359 C82.0333252 11.54724121 82.0333252 11.54724121 79.53710938 13.38818359 C76.61859941 13.78276136 74.07767467 13.93555671 71.16015625 13.90576172 C69.89607689 13.91627563 69.89607689 13.91627563 68.60646057 13.92700195 C65.82259102 13.94459805 63.03973915 13.93295368 60.25585938 13.91943359 C58.32059535 13.92212805 56.38533264 13.92601008 54.45007324 13.93103027 C50.39480699 13.9369275 46.33989324 13.92835509 42.28466797 13.90966797 C37.08568006 13.88687833 31.88751809 13.9000002 26.68856049 13.92395782 C22.69254326 13.9384097 18.69672197 13.93381261 14.70069885 13.92344666 C12.78373619 13.92077768 10.86675576 13.92405512 8.94981384 13.93336487 C6.27075055 13.94352042 3.59302603 13.92804386 0.9140625 13.90576172 C-0.27521095 13.9179071 -0.27521095 13.9179071 -1.48851013 13.93029785 C-5.02555233 13.87577735 -7.07464954 13.67450879 -9.95910645 11.54724121 C-11.9895909 8.63197385 -11.98094764 6.86656639 -11.46289062 3.38818359 C-8.91227042 -0.85086985 -4.3950899 -0.03267967 0 0 Z " fill="#DCDBE3" transform="translate(73.462890625,125.61181640625)"/>
<path d="M0 0 C1.51188148 -0.01925285 1.51188148 -0.01925285 3.05430603 -0.03889465 C4.1418367 -0.04628159 5.22936737 -0.05366852 6.34985352 -0.0612793 C7.46812027 -0.06935104 8.58638702 -0.07742279 9.73854065 -0.08573914 C12.10481213 -0.09957312 14.4711035 -0.11029834 16.83740234 -0.11816406 C20.46107482 -0.13541386 24.0838437 -0.17931159 27.70727539 -0.22338867 C30.00479472 -0.23351237 32.3023218 -0.24202948 34.59985352 -0.2487793 C35.68535995 -0.26628738 36.77086639 -0.28379547 37.88926697 -0.30183411 C38.90034012 -0.29890854 39.91141327 -0.29598297 40.953125 -0.29296875 C41.84120346 -0.29883499 42.72928192 -0.30470123 43.64427185 -0.31074524 C46.84216286 0.33997242 48.03500503 1.65552296 50.04125977 4.17700195 C50.60375977 7.17700195 50.60375977 7.17700195 50.04125977 10.17700195 C47.84096752 12.80406089 46.01525378 14.02499119 42.60543823 14.55715942 C39.50315975 14.72450169 36.42541108 14.75742841 33.31860352 14.7434082 C32.18097061 14.74960678 31.04333771 14.75580536 29.87123108 14.76219177 C27.46982681 14.76928656 25.06837333 14.76612199 22.66699219 14.75341797 C18.9880971 14.73953718 15.31173755 14.77365035 11.63305664 14.81176758 C9.29907164 14.81271862 6.96508345 14.81086076 4.63110352 14.8059082 C3.52999741 14.81916641 2.4288913 14.83242462 1.29441833 14.84608459 C-6.30455668 14.75313591 -6.30455668 14.75313591 -9.65576172 11.80175781 C-11.09714711 8.89819133 -11.54579323 7.36386107 -10.95874023 4.17700195 C-8.04938493 0.29786155 -4.59165469 0.0509434 0 0 Z " fill="#DCDCE3" transform="translate(72.958740234375,91.822998046875)"/>
<path d="M0 0 C1.00784546 -0.01268417 2.01569092 -0.02536835 3.05407715 -0.03843689 C4.13644653 -0.03550125 5.21881592 -0.03256561 6.33398438 -0.02954102 C8.00926208 -0.03740379 8.00926208 -0.03740379 9.71838379 -0.04542542 C12.07868621 -0.05184623 14.43902062 -0.05050789 16.79931641 -0.04199219 C20.41431496 -0.03347887 24.02773556 -0.06225046 27.64257812 -0.09399414 C29.9355464 -0.09560611 32.22851748 -0.0950287 34.52148438 -0.09204102 C35.60385376 -0.10327499 36.68622314 -0.11450897 37.8013916 -0.12608337 C38.80923706 -0.11670242 39.81708252 -0.10732147 40.85546875 -0.09765625 C41.74053101 -0.09749008 42.62559326 -0.09732391 43.53747559 -0.09715271 C46.73960836 0.5742919 47.95638114 1.83728634 49.92773438 4.40405273 C49.92773438 7.96655273 49.92773438 7.96655273 48.92773438 11.40405273 C45.98961958 14.24808477 43.88636591 14.7834983 39.85546875 14.80810547 C38.84762329 14.82078964 37.83977783 14.83347382 36.8013916 14.84654236 C35.71902222 14.84360672 34.63665283 14.84067108 33.52148438 14.83764648 C32.40463257 14.84288834 31.28778076 14.84813019 30.13708496 14.85353088 C27.77678254 14.85995169 25.41644813 14.85861336 23.05615234 14.85009766 C19.44115379 14.84158434 15.82773319 14.87035593 12.21289062 14.90209961 C9.91992235 14.90371158 7.62695127 14.90313416 5.33398438 14.90014648 C4.25161499 14.91138046 3.16924561 14.92261444 2.05407715 14.93418884 C1.04623169 14.92480789 0.03838623 14.91542694 -1 14.90576172 C-1.88506226 14.90559555 -2.77012451 14.90542938 -3.68200684 14.90525818 C-6.88413961 14.23381357 -8.10091239 12.97081913 -10.07226562 10.40405273 C-10.07226562 6.84155273 -10.07226562 6.84155273 -9.07226562 3.40405273 C-6.13415083 0.5600207 -4.03089716 0.02460717 0 0 Z " fill="#DDDCE4" transform="translate(72.072265625,159.595947265625)"/>
<path d="M0 0 C4.47916667 3.58333333 4.47916667 3.58333333 5.8125 6.25 C6.2210132 10.53938857 6.29275674 13.11254983 4.625 17.0625 C1.79495554 20.4780709 -0.30361825 21.99181741 -4.78125 22.60546875 C-9.66763057 22.84847424 -12.29421335 22.91103212 -16.3125 19.9375 C-19.30071219 15.65439586 -20.05127985 11.38415214 -19.1875 6.25 C-17.42562786 2.90902255 -15.0503725 0.73674859 -11.75 -1.125 C-7.05327977 -2.27054152 -4.31597729 -2.36955616 0 0 Z " fill="#393C96" transform="translate(557.1875,90.75)"/>
</svg>
